<svg fill="#00baff" width="96" height="96" xmlns="http://www.w3.org/2000/svg" xmlns:xlink="http://www.w3.org/1999/xlink" xml:space="preserve" overflow="hidden"><defs><clipPath id="clip0"><rect x="0" y="0" width="96" height="96"/></clipPath></defs><g clip-path="url(#clip0)"><path d="M70.3 38.55C67.0576 37.0031 64.6376 34.136 63.657 30.68 62.6755 34.1368 60.2539 37.004 57.01 38.55 60.2541 40.0962 62.6758 42.9638 63.657 46.421 64.6373 42.9646 67.0574 40.0971 70.3 38.55ZM60.738 38.55C61.8639 37.6409 62.8477 36.5687 63.657 35.369 64.4652 36.5689 65.4484 37.6411 66.574 38.55 65.4484 39.4589 64.4652 40.5311 63.657 41.731 62.848 40.5311 61.8642 39.4589 60.738 38.55Z"/><path d="M22.652 51.209C18.747 45.307 16 39.135 16 33.43 16.1572 29.4734 17.7813 25.717 20.556 22.892 23.227 19.9086 26.9982 18.1421 31 18 36.888 18 42.149 22.264 46.214 30.33L48 33.874 49.786 30.33C53.852 22.264 59.112 18 65 18 72.57 18 80 25.643 80 33.43 80 51.013 53.985 73.043 48 77.877 43.2938 74.0504 38.808 69.9605 34.564 65.627 34.0893 66.1003 33.6287 66.587 33.182 67.087 37.8287 71.8493 42.7783 76.3062 48 80.43 48 80.43 82 54.43 82 33.43 82 24.9 74.056 16 65 16 59.19 16 52.924 19.66 48 29.43 43.077 19.662 36.809 16 31 16 21.943 16 14 24.9 14 33.43 14 39.738 17.077 46.494 21.37 52.864 21.8153 52.326 22.2427 51.7743 22.652 51.209Z"/><path d="M26.9 48.167C24.3429 53.0529 20.6522 57.2549 16.137 60.421 20.6529 63.5859 24.3438 67.7878 26.9 72.674 29.4573 67.7879 33.1488 63.5861 37.665 60.421 33.1483 57.2561 29.4567 53.0538 26.9 48.167ZM26.9 68.727C24.8523 65.5947 22.338 62.7937 19.444 60.421 22.3375 58.0478 24.8518 55.2469 26.9 52.115 28.9484 55.2474 31.4634 58.0484 34.358 60.421 31.4634 62.7936 28.9484 65.5946 26.9 68.727Z"/></g></svg>