<svg width="96" height="96" xmlns="http://www.w3.org/2000/svg" xmlns:xlink="http://www.w3.org/1999/xlink" overflow="hidden"><defs><clipPath id="clip0"><rect x="0" y="0" width="96" height="96"/></clipPath></defs><g clip-path="url(#clip0)"><path d="M88.6 34.75 73.26 35.23C72.15 34.35 69.89 33.14 66 33.23 60.79 33.39 58.32 37.1 53.58 41.31 49.68 32.54 42.46 22.93 36 17.8 35.3437 17.2855 34.3945 17.4005 33.88 18.0569 33.6861 18.3042 33.5742 18.606 33.56 18.92 33.5368 23.3373 34.0199 27.7427 35 32.05 41 35.67 46.45 40.05 49.53 44.58 49 44.95 48.43 45.32 47.84 45.68 41.91 37.19 26.17 28.2 15.23 25.93 14.4127 25.7643 13.6158 26.2925 13.45 27.1098 13.3894 27.4088 13.4208 27.7192 13.54 28 16.63 34.88 25.74 46.38 34.24 52.84L9.5 77.46C9.16987 77.8242 9.19745 78.387 9.56162 78.7171 9.81661 78.9483 10.182 79.0117 10.5 78.88 17.58 75.14 30.05 69.27 40.11 68.28 59.44 66.38 70.11 54.72 73.76 37.89L88.64 35.24C88.7733 35.2039 88.852 35.0666 88.8159 34.9333 88.7888 34.8334 88.703 34.7605 88.6 34.75Z"/></g></svg>